<?xml version="1.0" encoding="utf-8"?>
<!-- Generator: Adobe Illustrator 23.0.3, SVG Export Plug-In . SVG Version: 6.00 Build 0)  -->
<svg version="1.1" id="Layer_1" xmlns="http://www.w3.org/2000/svg" xmlns:xlink="http://www.w3.org/1999/xlink" x="0px" y="0px"
	 viewBox="0 0 16 16" style="enable-background:new 0 0 16 16;" xml:space="preserve">
<style type="text/css">
	.st0{fill:#006838;}
	.st1{fill:#FFFFFF;}
</style>
<rect class="st0" width="16" height="16"/>
<g>
	<path class="st1" d="M9.98,5.83C8.61,6.36,7.32,6.93,6.29,7.55C5.2,8.21,4.47,9.09,4.47,9.94c0,1.82,1.99,3.07,4.95,3.07
		c1.07,0,2.05-0.13,2.76-0.31l0.08,0.19c-0.55,0.41-1.15,0.83-1.82,1.21c-0.35,0.19-0.99,0.31-1.85,0.31
		c-2.63,0-4.85-1.25-4.85-4.04c0-1.42,0.76-2.59,1.8-3.5C4.37,6.04,3.91,5.45,3.91,4.51c0-0.47,0.16-1.1,0.49-1.66
		c0.5-0.82,1.23-1.27,2.01-1.27c0.95,0,1.67,0.48,2.33,1.36L8.57,3.18c-0.56-0.26-1.1-0.36-1.68-0.36c-1.2,0-2.17,0.61-2.17,1.05
		c0,0.49,0.28,0.88,0.94,1.38C6.06,5.53,6.6,5.83,6.81,5.83s0.41-0.11,0.6-0.19c0.97-0.47,1.95-0.89,2.92-1.26l0.05,0.03L9.98,5.83z
		"/>
</g>
</svg>
